<mxfile host="app.diagrams.net" agent="Mozilla/5.0 (Windows NT 10.0; Win64; x64) AppleWebKit/537.36 (KHTML, like Gecko) Chrome/131.0.0.0 Safari/537.36" version="25.0.3">
  <diagram name="Trang-1" id="EzW0xScxfdDuLIqm9-0k">
    <mxGraphModel dx="836" dy="834" grid="1" gridSize="10" guides="1" tooltips="1" connect="1" arrows="1" fold="1" page="0" pageScale="1" pageWidth="827" pageHeight="1169" math="0" shadow="0">
      <root>
        <mxCell id="0" />
        <mxCell id="1" parent="0" />
        <mxCell id="7TRwSiytGqQYxqVTM1Wr-7" style="edgeStyle=orthogonalEdgeStyle;rounded=0;orthogonalLoop=1;jettySize=auto;html=1;entryX=0.5;entryY=0;entryDx=0;entryDy=0;" edge="1" parent="1" source="7TRwSiytGqQYxqVTM1Wr-1" target="7TRwSiytGqQYxqVTM1Wr-2">
          <mxGeometry relative="1" as="geometry" />
        </mxCell>
        <mxCell id="7TRwSiytGqQYxqVTM1Wr-1" value="START" style="strokeWidth=2;html=1;shape=mxgraph.flowchart.start_2;whiteSpace=wrap;" vertex="1" parent="1">
          <mxGeometry x="430" y="-240" width="180" height="100" as="geometry" />
        </mxCell>
        <mxCell id="7TRwSiytGqQYxqVTM1Wr-14" style="edgeStyle=orthogonalEdgeStyle;rounded=0;orthogonalLoop=1;jettySize=auto;html=1;" edge="1" parent="1" source="7TRwSiytGqQYxqVTM1Wr-2" target="7TRwSiytGqQYxqVTM1Wr-13">
          <mxGeometry relative="1" as="geometry" />
        </mxCell>
        <mxCell id="7TRwSiytGqQYxqVTM1Wr-2" value="nhập n" style="shape=parallelogram;html=1;strokeWidth=2;perimeter=parallelogramPerimeter;whiteSpace=wrap;rounded=1;arcSize=12;size=0.23;" vertex="1" parent="1">
          <mxGeometry x="445" y="-100" width="150" height="60" as="geometry" />
        </mxCell>
        <mxCell id="7TRwSiytGqQYxqVTM1Wr-16" style="edgeStyle=orthogonalEdgeStyle;rounded=0;orthogonalLoop=1;jettySize=auto;html=1;" edge="1" parent="1" source="7TRwSiytGqQYxqVTM1Wr-12" target="7TRwSiytGqQYxqVTM1Wr-17">
          <mxGeometry relative="1" as="geometry">
            <mxPoint x="520" y="440" as="targetPoint" />
          </mxGeometry>
        </mxCell>
        <mxCell id="7TRwSiytGqQYxqVTM1Wr-40" style="edgeStyle=orthogonalEdgeStyle;rounded=0;orthogonalLoop=1;jettySize=auto;html=1;" edge="1" parent="1" source="7TRwSiytGqQYxqVTM1Wr-12" target="7TRwSiytGqQYxqVTM1Wr-32">
          <mxGeometry relative="1" as="geometry">
            <mxPoint x="440" y="530" as="targetPoint" />
            <Array as="points">
              <mxPoint x="320" y="160" />
              <mxPoint x="320" y="500" />
            </Array>
          </mxGeometry>
        </mxCell>
        <mxCell id="7TRwSiytGqQYxqVTM1Wr-12" value="&lt;font style=&quot;font-size: 19px;&quot;&gt;if i &amp;lt;= n&lt;/font&gt;" style="strokeWidth=2;html=1;shape=mxgraph.flowchart.decision;whiteSpace=wrap;" vertex="1" parent="1">
          <mxGeometry x="430" y="110" width="185" height="100" as="geometry" />
        </mxCell>
        <mxCell id="7TRwSiytGqQYxqVTM1Wr-15" style="edgeStyle=orthogonalEdgeStyle;rounded=0;orthogonalLoop=1;jettySize=auto;html=1;" edge="1" parent="1" source="7TRwSiytGqQYxqVTM1Wr-13">
          <mxGeometry relative="1" as="geometry">
            <mxPoint x="520" y="110" as="targetPoint" />
          </mxGeometry>
        </mxCell>
        <mxCell id="7TRwSiytGqQYxqVTM1Wr-13" value="i = 1" style="rounded=1;whiteSpace=wrap;html=1;absoluteArcSize=1;arcSize=14;strokeWidth=2;" vertex="1" parent="1">
          <mxGeometry x="450" width="140" height="70" as="geometry" />
        </mxCell>
        <mxCell id="7TRwSiytGqQYxqVTM1Wr-37" style="edgeStyle=orthogonalEdgeStyle;rounded=0;orthogonalLoop=1;jettySize=auto;html=1;entryX=0;entryY=0.5;entryDx=0;entryDy=0;" edge="1" parent="1" source="7TRwSiytGqQYxqVTM1Wr-17" target="7TRwSiytGqQYxqVTM1Wr-41">
          <mxGeometry relative="1" as="geometry">
            <mxPoint x="650" y="320.0000000000002" as="targetPoint" />
          </mxGeometry>
        </mxCell>
        <mxCell id="7TRwSiytGqQYxqVTM1Wr-45" style="edgeStyle=orthogonalEdgeStyle;rounded=0;orthogonalLoop=1;jettySize=auto;html=1;entryX=0.5;entryY=1;entryDx=0;entryDy=0;" edge="1" parent="1" source="7TRwSiytGqQYxqVTM1Wr-17" target="7TRwSiytGqQYxqVTM1Wr-19">
          <mxGeometry relative="1" as="geometry">
            <Array as="points">
              <mxPoint x="523" y="400" />
              <mxPoint x="830" y="400" />
            </Array>
          </mxGeometry>
        </mxCell>
        <mxCell id="7TRwSiytGqQYxqVTM1Wr-17" value="n mod i = 0" style="strokeWidth=2;html=1;shape=mxgraph.flowchart.decision;whiteSpace=wrap;" vertex="1" parent="1">
          <mxGeometry x="425" y="270" width="195" height="100" as="geometry" />
        </mxCell>
        <mxCell id="7TRwSiytGqQYxqVTM1Wr-19" value="i = i +1" style="rounded=1;whiteSpace=wrap;html=1;absoluteArcSize=1;arcSize=14;strokeWidth=2;" vertex="1" parent="1">
          <mxGeometry x="790" y="285" width="80" height="70" as="geometry" />
        </mxCell>
        <mxCell id="7TRwSiytGqQYxqVTM1Wr-20" style="edgeStyle=orthogonalEdgeStyle;rounded=0;orthogonalLoop=1;jettySize=auto;html=1;entryX=1;entryY=0.5;entryDx=0;entryDy=0;entryPerimeter=0;" edge="1" parent="1" source="7TRwSiytGqQYxqVTM1Wr-19" target="7TRwSiytGqQYxqVTM1Wr-12">
          <mxGeometry relative="1" as="geometry">
            <Array as="points">
              <mxPoint x="830" y="160" />
            </Array>
          </mxGeometry>
        </mxCell>
        <mxCell id="7TRwSiytGqQYxqVTM1Wr-21" value="true" style="text;html=1;align=center;verticalAlign=middle;resizable=0;points=[];autosize=1;strokeColor=none;fillColor=none;" vertex="1" parent="1">
          <mxGeometry x="520" y="200" width="40" height="30" as="geometry" />
        </mxCell>
        <mxCell id="7TRwSiytGqQYxqVTM1Wr-26" value="false" style="text;html=1;align=center;verticalAlign=middle;resizable=0;points=[];autosize=1;strokeColor=none;fillColor=none;" vertex="1" parent="1">
          <mxGeometry x="395" y="158" width="50" height="30" as="geometry" />
        </mxCell>
        <mxCell id="7TRwSiytGqQYxqVTM1Wr-32" value="END" style="strokeWidth=2;html=1;shape=mxgraph.flowchart.start_2;whiteSpace=wrap;" vertex="1" parent="1">
          <mxGeometry x="442.5" y="450" width="160" height="100" as="geometry" />
        </mxCell>
        <mxCell id="7TRwSiytGqQYxqVTM1Wr-39" style="edgeStyle=orthogonalEdgeStyle;rounded=0;orthogonalLoop=1;jettySize=auto;html=1;entryX=0;entryY=0.5;entryDx=0;entryDy=0;exitX=1;exitY=0.5;exitDx=0;exitDy=0;" edge="1" parent="1" source="7TRwSiytGqQYxqVTM1Wr-41" target="7TRwSiytGqQYxqVTM1Wr-19">
          <mxGeometry relative="1" as="geometry">
            <mxPoint x="760" y="320.0000000000002" as="sourcePoint" />
          </mxGeometry>
        </mxCell>
        <mxCell id="7TRwSiytGqQYxqVTM1Wr-41" value="&lt;br&gt;&lt;span style=&quot;color: rgb(0, 0, 0); font-family: Helvetica; font-size: 12px; font-style: normal; font-variant-ligatures: normal; font-variant-caps: normal; font-weight: 400; letter-spacing: normal; orphans: 2; text-align: center; text-indent: 0px; text-transform: none; widows: 2; word-spacing: 0px; -webkit-text-stroke-width: 0px; white-space: normal; background-color: rgb(255, 255, 255); text-decoration-thickness: initial; text-decoration-style: initial; text-decoration-color: initial; display: inline !important; float: none;&quot;&gt;in i là ước&amp;nbsp;&lt;/span&gt;&lt;div&gt;&lt;span style=&quot;color: rgb(0, 0, 0); font-family: Helvetica; font-size: 12px; font-style: normal; font-variant-ligatures: normal; font-variant-caps: normal; font-weight: 400; letter-spacing: normal; orphans: 2; text-align: center; text-indent: 0px; text-transform: none; widows: 2; word-spacing: 0px; -webkit-text-stroke-width: 0px; white-space: normal; background-color: rgb(255, 255, 255); text-decoration-thickness: initial; text-decoration-style: initial; text-decoration-color: initial; display: inline !important; float: none;&quot;&gt;của n&lt;/span&gt;&lt;br&gt;&lt;br&gt;&lt;/div&gt;" style="shape=parallelogram;html=1;strokeWidth=2;perimeter=parallelogramPerimeter;whiteSpace=wrap;rounded=1;arcSize=12;size=0.23;" vertex="1" parent="1">
          <mxGeometry x="650" y="290" width="100" height="60" as="geometry" />
        </mxCell>
        <mxCell id="7TRwSiytGqQYxqVTM1Wr-44" value="true" style="text;html=1;align=center;verticalAlign=middle;resizable=0;points=[];autosize=1;strokeColor=none;fillColor=none;" vertex="1" parent="1">
          <mxGeometry x="600" y="288" width="40" height="30" as="geometry" />
        </mxCell>
        <mxCell id="7TRwSiytGqQYxqVTM1Wr-46" value="False" style="text;html=1;align=center;verticalAlign=middle;resizable=0;points=[];autosize=1;strokeColor=none;fillColor=none;" vertex="1" parent="1">
          <mxGeometry x="520" y="370" width="50" height="30" as="geometry" />
        </mxCell>
      </root>
    </mxGraphModel>
  </diagram>
</mxfile>
